<?xml version="1.0" encoding="UTF-8"?>
<svg id="_レイヤー_1" data-name="レイヤー_1" xmlns="http://www.w3.org/2000/svg" viewBox="0 0 1238.66 406.99">
  <defs>
    <style>
      .cls-1 {
        fill: #285388;
      }

      .cls-2 {
        fill: #fff;
      }

      .cls-3 {
        stroke-width: 7.09px;
      }

      .cls-3, .cls-4 {
        fill: none;
        stroke: #000;
      }

      .cls-5 {
        fill: #6189bd;
      }

      .cls-4 {
        stroke-width: 6.26px;
      }
    </style>
  </defs>
  <rect class="cls-3" x="3.54" y="3.54" width="1231.57" height="399.91"/>
  <path d="M689.62,163.14h24.47l-1,5.68h-24.46l1-5.68ZM686.34,181.74h21.24l-1,5.68h-21.24l1-5.68ZM683.11,200.05h24.47l-1,5.68h-24.46l1-5.68ZM686.72,163.14h5.98l-7.51,42.6h-5.98l7.51-42.6ZM653.76,163.14h24.46l-1,5.68h-24.46l1-5.68ZM650.48,181.74h21.24l-1,5.68h-21.24l1-5.68ZM647.25,200.05h24.46l-1,5.68h-24.46l1-5.68ZM650.86,163.14h5.98l-7.51,42.6h-5.98l7.51-42.6ZM617.9,163.14h24.47l-1,5.68h-24.46l1-5.68ZM614.62,181.74h21.24l-1,5.68h-21.24l1-5.68ZM611.4,200.05h24.46l-1,5.68h-24.46l1-5.68ZM615,163.14h5.98l-7.51,42.6h-5.98l7.51-42.6ZM596.95,205.74h-5.98l7.51-42.6h5.98l-7.51,42.6Z"/>
  <path d="M941.09,256.78c-.13.75-.03,1.32.31,1.73.36.39.93.59,1.71.59h1.35l-1.37,7.73h-4.1c-2.44,0-4.21-.7-5.31-2.11-1.1-1.41-1.43-3.39-.97-5.95l6.09-34.54h8.03l-5.74,32.55ZM912.1,259.53c1.62,0,2.96-.46,4.03-1.4,1.07-.96,1.75-2.3,2.05-4.02l.89-5.04c.3-1.7.09-3.02-.65-3.96-.73-.93-1.91-1.4-3.53-1.4s-2.93.47-4,1.4c-1.04.94-1.72,2.26-2.02,3.96l-.89,5.04c-.3,1.72-.1,3.06.61,4.02.72.94,1.88,1.4,3.5,1.4ZM910.76,267.27c-2.77,0-5.06-.52-6.84-1.55-1.77-1.04-3-2.54-3.69-4.51-.66-1.99-.75-4.38-.26-7.18l.87-4.95c.49-2.75,1.41-5.11,2.77-7.06,1.38-1.97,3.14-3.46,5.27-4.48,2.16-1.04,4.62-1.55,7.39-1.55s5.04.52,6.81,1.55c1.8,1.02,3.03,2.51,3.7,4.48.69,1.95.79,4.31.3,7.06l-.89,5.04c-.49,2.77-1.43,5.14-2.81,7.12-1.36,1.95-3.12,3.45-5.27,4.48-2.13,1.04-4.59,1.55-7.36,1.55ZM894.55,244.89c-.33-.39-.75-.69-1.28-.88-.53-.2-1.17-.29-1.91-.29-1.62,0-2.97.52-4.05,1.58-1.06,1.04-1.76,2.48-2.09,4.34l.78-7.91c1.16-1.82,2.49-3.22,4-4.21,1.53-1.02,3.09-1.52,4.69-1.52,1.27,0,2.37.2,3.32.61.97.39,1.76.98,2.38,1.76l-5.84,6.53ZM878.94,236.42h8.61l-5.36,30.41h-8.61l5.36-30.41ZM857.02,236.42h14.88l-1.21,6.85h-14.88l1.21-6.85ZM862.47,266.97c-2.66,0-4.49-.67-5.5-2.02-.99-1.37-1.25-3.38-.78-6.04l5.53-31.35h8.03l-5.18,29.36c-.13.74-.09,1.32.13,1.73.22.39.62.58,1.19.58h1.99l-1.37,7.73h-4.04ZM841.32,248.4c.26-1.48.04-2.64-.68-3.46-.7-.82-1.83-1.23-3.39-1.23s-2.71.42-3.68,1.26c-.95.82-1.55,1.98-1.82,3.49l.57-6.74c1.25-1.91,2.6-3.35,4.04-4.3,1.46-.96,3.16-1.43,5.09-1.43,3.2,0,5.49,1.08,6.87,3.25,1.38,2.15,1.72,5.2,1.02,9.14l-3.25,18.46h-8.03l3.25-18.43ZM825.85,236.42h8.03l-5.36,30.41h-8.03l5.36-30.41ZM801.3,259.53c1.62,0,2.97-.46,4.03-1.4,1.07-.96,1.75-2.3,2.06-4.02l.89-5.04c.3-1.7.09-3.02-.65-3.96-.73-.93-1.91-1.4-3.53-1.4s-2.93.47-4,1.4c-1.05.94-1.72,2.26-2.02,3.96l-.89,5.04c-.3,1.72-.1,3.06.61,4.02.71.94,1.88,1.4,3.5,1.4ZM799.96,267.27c-2.77,0-5.05-.52-6.84-1.55-1.77-1.04-3-2.54-3.69-4.51-.66-1.99-.75-4.38-.26-7.18l.88-4.95c.48-2.75,1.41-5.11,2.77-7.06,1.38-1.97,3.14-3.46,5.27-4.48,2.16-1.04,4.62-1.55,7.39-1.55s5.04.52,6.82,1.55c1.79,1.02,3.02,2.51,3.69,4.48.69,1.95.79,4.31.31,7.06l-.89,5.04c-.49,2.77-1.43,5.14-2.81,7.12-1.36,1.95-3.12,3.45-5.27,4.48-2.13,1.04-4.59,1.55-7.36,1.55ZM765.72,267.27c-3.24,0-5.91-.61-8-1.84-2.08-1.25-3.52-3.05-4.32-5.42-.79-2.38-.89-5.25-.3-8.61l2.06-11.69c.59-3.36,1.7-6.22,3.33-8.58,1.63-2.38,3.71-4.2,6.23-5.45,2.52-1.25,5.41-1.88,8.65-1.88,2.68,0,4.97.57,6.88,1.73,1.91,1.15,3.35,2.83,4.32,5.04,1,2.19,1.49,4.84,1.47,7.94h-8.32c-.07-1.41-.34-2.61-.83-3.6-.47-1-1.13-1.76-1.97-2.29-.83-.53-1.81-.79-2.96-.79-1.5,0-2.84.31-4,.93-1.16.6-2.13,1.51-2.91,2.7-.75,1.17-1.28,2.59-1.57,4.25l-2.06,11.69c-.29,1.66-.27,3.07.07,4.25.36,1.17,1.01,2.07,1.96,2.7.95.61,2.17.91,3.68.91,1.17,0,2.27-.25,3.3-.76,1.03-.53,1.95-1.29,2.77-2.29.82-1,1.5-2.21,2.05-3.63h8.32c-1.09,3.11-2.53,5.76-4.3,7.97-1.75,2.19-3.79,3.86-6.1,5.01-2.29,1.15-4.78,1.73-7.45,1.73ZM718.01,236.42h14.88l-1.21,6.85h-14.88l1.21-6.85ZM723.46,266.97c-2.66,0-4.49-.67-5.5-2.02-.99-1.37-1.25-3.38-.78-6.04l5.53-31.35h8.03l-5.17,29.36c-.13.74-.09,1.32.14,1.73.22.39.62.58,1.18.58h1.99l-1.36,7.73h-4.04ZM695.8,259.53c1.62,0,2.97-.46,4.03-1.4,1.07-.96,1.75-2.3,2.06-4.02l.89-5.04c.3-1.7.08-3.02-.65-3.96-.73-.93-1.91-1.4-3.53-1.4s-2.94.47-4,1.4c-1.04.94-1.72,2.26-2.02,3.96l-.89,5.04c-.3,1.72-.1,3.06.61,4.02.72.94,1.88,1.4,3.5,1.4ZM694.47,267.27c-2.77,0-5.06-.52-6.84-1.55-1.77-1.04-3-2.54-3.69-4.51-.66-1.99-.75-4.38-.26-7.18l.87-4.95c.49-2.75,1.41-5.11,2.77-7.06,1.38-1.97,3.14-3.46,5.27-4.48,2.15-1.04,4.62-1.55,7.39-1.55s5.05.52,6.82,1.55c1.79,1.02,3.02,2.51,3.69,4.48.69,1.95.8,4.31.31,7.06l-.89,5.04c-.49,2.77-1.43,5.14-2.81,7.12-1.36,1.95-3.12,3.45-5.27,4.48-2.14,1.04-4.59,1.55-7.36,1.55ZM657.17,224.23h8.03l-7.51,42.6h-8.03l7.51-42.6ZM664.67,267.27c-1.78,0-3.23-.45-4.36-1.35-1.13-.91-1.86-2.2-2.19-3.86l1.64-6.95c-.18,1-.15,1.84.08,2.55.23.7.64,1.24,1.24,1.61.62.37,1.41.56,2.36.56,1.5,0,2.75-.5,3.75-1.5,1.01-1,1.68-2.4,2-4.22l.85-4.84c.33-1.85.16-3.29-.5-4.3-.64-1.04-1.71-1.56-3.22-1.56-.96,0-1.81.2-2.56.59-.73.37-1.33.91-1.81,1.64-.48.72-.81,1.6-.99,2.64l.57-6.74c1.13-1.78,2.45-3.15,3.95-4.1,1.52-.98,3.09-1.47,4.71-1.47,2.15,0,3.89.52,5.23,1.55,1.36,1.03,2.27,2.55,2.72,4.54.45,2,.42,4.39-.07,7.18l-.85,4.86c-.49,2.77-1.31,5.14-2.46,7.12-1.15,1.95-2.58,3.45-4.3,4.48-1.71,1.04-3.64,1.55-5.78,1.55ZM630.47,259.53c1.62,0,2.96-.46,4.03-1.4,1.07-.96,1.75-2.3,2.06-4.02l.89-5.04c.3-1.7.08-3.02-.65-3.96-.73-.93-1.91-1.4-3.53-1.4s-2.93.47-4,1.4c-1.04.94-1.71,2.26-2.02,3.96l-.89,5.04c-.3,1.72-.1,3.06.61,4.02.71.94,1.88,1.4,3.5,1.4ZM629.13,267.27c-2.77,0-5.05-.52-6.84-1.55-1.77-1.04-3-2.54-3.69-4.51-.66-1.99-.75-4.38-.26-7.18l.87-4.95c.49-2.75,1.41-5.11,2.77-7.06,1.38-1.97,3.14-3.46,5.27-4.48,2.16-1.04,4.62-1.55,7.39-1.55s5.05.52,6.82,1.55c1.8,1.02,3.03,2.51,3.69,4.48.69,1.95.79,4.31.31,7.06l-.89,5.04c-.49,2.77-1.43,5.14-2.81,7.12-1.36,1.95-3.12,3.45-5.27,4.48-2.14,1.04-4.59,1.55-7.36,1.55ZM595.02,248.37l8.82-1.35,7.99,19.81h-9.73l-7.09-18.46ZM587.13,224.2h8.03l-7.52,42.63h-8.03l7.52-42.63ZM587.19,241.96h14.83c.82,0,1.58-.21,2.27-.62.7-.41,1.28-1,1.75-1.76.49-.76.83-1.64,1.02-2.64.17-1,.15-1.88-.06-2.64-.2-.76-.57-1.35-1.12-1.76-.55-.41-1.25-.62-2.09-.62h-14.82l1.36-7.74h15.47c2.34,0,4.31.53,5.9,1.59,1.59,1.05,2.71,2.55,3.34,4.48.64,1.91.73,4.14.29,6.68-.45,2.54-1.33,4.77-2.65,6.71-1.31,1.91-2.96,3.39-4.95,4.45-1.96,1.06-4.11,1.58-6.43,1.58h-15.47l1.36-7.73Z"/>
  <path d="M1105.27,328.36c-2.81,0-5.12-.53-6.92-1.58-1.81-1.05-3.06-2.6-3.75-4.63-.68-2.05-.76-4.52-.25-7.41l.6-3.43c.53-3.01,1.48-5.58,2.85-7.71,1.39-2.13,3.14-3.75,5.25-4.86,2.11-1.12,4.51-1.67,7.21-1.67,2.54,0,4.59.63,6.17,1.9,1.57,1.27,2.62,3.11,3.13,5.51.54,2.41.5,5.29-.08,8.64l-.35,1.99h-20.51l.85-4.8h14.82c.26-2.48-.05-4.41-.92-5.77-.85-1.39-2.2-2.08-4.06-2.08-2.27,0-4.15.74-5.66,2.23-1.49,1.48-2.48,3.59-2.96,6.3l-.68,3.87c-.45,2.52-.12,4.45.97,5.8,1.09,1.35,2.86,2.02,5.3,2.02,1.21,0,2.45-.25,3.73-.73,1.28-.49,2.46-1.18,3.55-2.05l3.23,3.93c-1.76,1.44-3.65,2.57-5.66,3.37-2.01.78-3.97,1.17-5.86,1.17ZM1073.1,328.36c-2.81,0-5.12-.53-6.92-1.58-1.81-1.05-3.06-2.6-3.75-4.63-.68-2.05-.76-4.52-.25-7.41l.6-3.43c.53-3.01,1.48-5.58,2.85-7.71,1.39-2.13,3.14-3.75,5.25-4.86,2.11-1.12,4.52-1.67,7.21-1.67,2.54,0,4.59.63,6.17,1.9,1.57,1.27,2.62,3.11,3.13,5.51.54,2.41.5,5.29-.09,8.64l-.35,1.99h-20.51l.85-4.8h14.82c.26-2.48-.05-4.41-.92-5.77-.85-1.39-2.2-2.08-4.06-2.08-2.27,0-4.15.74-5.67,2.23-1.49,1.48-2.48,3.59-2.96,6.3l-.68,3.87c-.45,2.52-.12,4.45.97,5.8,1.09,1.35,2.86,2.02,5.3,2.02,1.21,0,2.45-.25,3.73-.73,1.28-.49,2.47-1.18,3.56-2.05l3.23,3.93c-1.76,1.44-3.65,2.57-5.66,3.37-2.01.78-3.97,1.17-5.86,1.17ZM1044.18,297.51h13.71l-.95,5.39h-13.71l.95-5.39ZM1049.05,328.07c-2.46,0-4.15-.67-5.06-2.02-.89-1.37-1.1-3.38-.64-6.04l5.53-31.35h5.98l-5.54,31.41c-.13.74-.09,1.32.13,1.73.22.39.62.59,1.19.59h2.87l-1,5.68h-3.46ZM1024.61,297.51h13.71l-.95,5.39h-13.71l.95-5.39ZM1029.48,328.07c-2.46,0-4.15-.67-5.06-2.02-.89-1.37-1.1-3.38-.64-6.04l5.53-31.35h5.98l-5.54,31.41c-.13.74-.09,1.32.13,1.73.22.39.62.59,1.19.59h2.87l-1,5.68h-3.46ZM1011.9,297.51h5.98l-5.36,30.41h-5.98l5.36-30.41ZM1014.05,285.32h5.98l-1.05,5.98h-5.98l1.05-5.98ZM976.56,309.49c.38-2.15.14-3.81-.71-4.98-.85-1.17-2.24-1.76-4.17-1.76s-3.56.52-4.81,1.55c-1.24,1.04-2.02,2.49-2.35,4.37l.42-5.86c1.26-1.84,2.73-3.25,4.41-4.25,1.7-1,3.46-1.5,5.3-1.5,2.13,0,3.86.49,5.19,1.46,1.34.96,2.23,2.36,2.68,4.22.48,1.86.48,4.09.02,6.71l-3.25,18.46h-5.98l3.25-18.43ZM960.51,297.51h5.98l-5.36,30.41h-5.98l5.36-30.41ZM994.73,309.49c.38-2.15.11-3.81-.79-4.98-.91-1.17-2.37-1.76-4.38-1.76-1.86,0-3.39.57-4.61,1.7-1.21,1.13-2,2.73-2.37,4.8l-.17-5.86c1.31-2.01,2.85-3.57,4.6-4.66,1.78-1.12,3.61-1.67,5.51-1.67,2.19,0,3.97.49,5.34,1.46,1.39.96,2.33,2.36,2.8,4.22.49,1.86.51,4.09.05,6.71l-3.25,18.46h-5.98l3.25-18.43ZM925.18,309.49c.38-2.15.14-3.81-.71-4.98-.85-1.17-2.24-1.76-4.17-1.76s-3.56.52-4.81,1.55c-1.24,1.04-2.02,2.49-2.35,4.37l.42-5.86c1.26-1.84,2.73-3.25,4.41-4.25,1.7-1,3.47-1.5,5.3-1.5,2.13,0,3.86.49,5.19,1.46,1.34.96,2.23,2.36,2.68,4.22.48,1.86.48,4.09.02,6.71l-3.25,18.46h-5.98l3.25-18.43ZM909.12,297.51h5.98l-5.36,30.41h-5.98l5.36-30.41ZM943.34,309.49c.38-2.15.11-3.81-.79-4.98s-2.37-1.76-4.38-1.76c-1.86,0-3.39.57-4.61,1.7-1.21,1.13-2,2.73-2.37,4.8l-.17-5.86c1.31-2.01,2.85-3.57,4.6-4.66,1.78-1.12,3.61-1.67,5.51-1.67,2.19,0,3.97.49,5.34,1.46,1.39.96,2.32,2.36,2.8,4.22.49,1.86.51,4.09.05,6.71l-3.25,18.46h-5.98l3.25-18.43ZM883.65,322.68c2.09,0,3.82-.66,5.18-1.96,1.38-1.31,2.28-3.15,2.7-5.51l.89-5.04c.42-2.36.16-4.19-.76-5.48-.91-1.29-2.4-1.93-4.49-1.93s-3.82.64-5.21,1.93c-1.36,1.29-2.25,3.11-2.66,5.48l-.89,5.04c-.42,2.36-.18,4.2.73,5.51.92,1.3,2.43,1.96,4.52,1.96ZM882.65,328.36c-2.64,0-4.8-.52-6.49-1.55-1.7-1.04-2.86-2.54-3.51-4.51-.62-2-.69-4.39-.2-7.18l.87-4.95c.49-2.75,1.39-5.11,2.71-7.06,1.34-1.97,3.04-3.47,5.1-4.48,2.05-1.04,4.4-1.55,7.04-1.55s4.8.52,6.5,1.55c1.7,1.02,2.86,2.51,3.49,4.48.65,1.95.73,4.31.25,7.06l-.89,5.04c-.49,2.77-1.41,5.15-2.75,7.12-1.32,1.95-3.01,3.45-5.07,4.48-2.06,1.04-4.41,1.55-7.04,1.55ZM848.4,328.36c-2.95,0-5.43-.65-7.45-1.96-2-1.31-3.4-3.17-4.2-5.57-.81-2.4-.93-5.18-.38-8.35l2.06-11.69c.56-3.16,1.66-5.95,3.32-8.35,1.66-2.4,3.71-4.26,6.17-5.57,2.48-1.33,5.2-1.99,8.14-1.99,2.44,0,4.59.53,6.46,1.58,1.87,1.04,3.32,2.51,4.34,4.42,1.05,1.92,1.6,4.13,1.64,6.65h-6.12c-.14-1.33-.55-2.51-1.25-3.55-.68-1.05-1.55-1.86-2.62-2.43-1.07-.57-2.23-.85-3.48-.85-1.74,0-3.34.42-4.79,1.26-1.46.84-2.68,2.02-3.67,3.54-.99,1.5-1.66,3.26-2.01,5.28l-2.06,11.69c-.35,1.99-.3,3.75.15,5.27.45,1.52,1.26,2.7,2.42,3.54,1.16.82,2.62,1.23,4.36,1.23,1.27,0,2.53-.26,3.77-.79,1.27-.53,2.42-1.31,3.46-2.34,1.06-1.04,1.9-2.27,2.53-3.69h6.12c-.93,2.52-2.26,4.73-3.99,6.65-1.72,1.91-3.7,3.4-5.94,4.45-2.23,1.04-4.56,1.55-6.98,1.55ZM807.82,320.07c-.13.74-.07,1.32.16,1.73.27.39.69.59,1.27.59h2.81l-1,5.68h-3.52c-2.27,0-3.9-.7-4.9-2.11-.98-1.41-1.25-3.39-.8-5.95l6.12-34.69h5.98l-6.13,34.75ZM778.18,328.36c-3.75,0-6.42-.77-8-2.31-1.58-1.56-2.09-3.93-1.54-7.09.53-3.01,1.78-5.26,3.74-6.77,1.97-1.5,4.67-2.25,8.1-2.25h8.64l-.44,4.8h-9.02c-1.56,0-2.8.35-3.7,1.05-.88.68-1.45,1.74-1.7,3.16-.27,1.54.04,2.69.92,3.43.9.74,2.4,1.11,4.49,1.11,2.28,0,4.03-.25,5.23-.73,1.22-.49,1.92-1.25,2.1-2.29l-.14,4.28c-.67.82-1.45,1.5-2.32,2.02-.85.53-1.81.92-2.87,1.17-1.06.27-2.23.41-3.5.41ZM789.09,308.64c.35-1.99.09-3.54-.8-4.63-.86-1.11-2.26-1.67-4.22-1.67-1.21,0-2.44.18-3.67.56-1.22.37-2.34.89-3.35,1.55l-3.84-2.99c1.4-1.39,3.1-2.46,5.11-3.22,2.03-.78,4.2-1.17,6.51-1.17,2.52,0,4.6.45,6.24,1.35,1.64.88,2.78,2.17,3.42,3.87.64,1.68.75,3.71.33,6.09l-3.44,19.54h-5.68l3.4-19.28ZM750.84,328.36c-2.77,0-5.06-.52-6.84-1.55-1.77-1.04-3-2.54-3.69-4.51-.69-1.98-.79-4.36-.29-7.15l.89-5.01c.49-2.75,1.42-5.11,2.8-7.06,1.38-1.95,3.13-3.44,5.27-4.45,2.16-1.04,4.62-1.55,7.39-1.55,1.58,0,3.03.2,4.35.59,1.34.37,2.5.92,3.49,1.64.99.72,1.76,1.6,2.32,2.64l-4.99,3.87c-.69-.98-1.56-1.73-2.62-2.25-1.06-.53-2.21-.79-3.46-.79-2.3,0-4.21.64-5.7,1.93-1.5,1.29-2.45,3.11-2.86,5.45l-.89,5.01c-.42,2.41-.12,4.26.9,5.57,1.04,1.3,2.72,1.96,5.05,1.96,1.27,0,2.53-.29,3.78-.85,1.25-.56,2.39-1.36,3.41-2.4l3.57,4.16c-.94,1.02-2.03,1.89-3.27,2.61-1.24.7-2.59,1.24-4.06,1.61-1.45.37-2.96.55-4.52.55ZM728.95,297.51h5.98l-5.36,30.41h-5.98l5.36-30.41ZM731.1,285.32h5.98l-1.05,5.98h-5.98l1.05-5.98ZM711.78,309.49c.38-2.15.11-3.81-.79-4.98-.91-1.17-2.37-1.76-4.38-1.76s-3.56.52-4.81,1.55c-1.24,1.04-2.02,2.49-2.35,4.37l.42-5.86c1.26-1.84,2.73-3.25,4.41-4.25,1.7-1,3.46-1.5,5.3-1.5,3.3,0,5.66,1.08,7.08,3.25,1.44,2.15,1.81,5.2,1.11,9.14l-3.25,18.46h-5.98l3.25-18.43ZM695.43,297.51h5.98l-5.36,30.41h-5.98l5.36-30.41ZM678.26,309.49c.38-2.15.11-3.81-.79-4.98-.91-1.17-2.37-1.76-4.38-1.76s-3.56.51-4.81,1.52c-1.23,1.02-2.02,2.45-2.34,4.3l.42-5.86c1.25-1.8,2.72-3.19,4.4-4.16,1.7-1,3.46-1.5,5.3-1.5,3.3,0,5.66,1.08,7.07,3.25,1.44,2.15,1.81,5.2,1.11,9.14l-3.25,18.46h-5.98l3.25-18.43ZM664.07,285.32h5.98l-7.51,42.6h-5.98l7.51-42.6ZM638.87,328.36c-2.77,0-5.05-.52-6.84-1.55-1.77-1.04-3-2.54-3.69-4.51-.69-1.98-.78-4.36-.29-7.15l.89-5.01c.48-2.75,1.42-5.11,2.8-7.06,1.38-1.95,3.13-3.44,5.27-4.45,2.16-1.04,4.62-1.55,7.4-1.55,1.58,0,3.03.2,4.35.59,1.34.37,2.5.92,3.49,1.64.98.72,1.76,1.6,2.32,2.64l-4.99,3.87c-.69-.98-1.56-1.73-2.62-2.25-1.06-.53-2.21-.79-3.46-.79-2.3,0-4.21.64-5.7,1.93-1.5,1.29-2.45,3.11-2.86,5.45l-.89,5.01c-.42,2.41-.12,4.26.89,5.57,1.04,1.3,2.72,1.96,5.05,1.96,1.27,0,2.53-.29,3.78-.85,1.25-.56,2.39-1.36,3.41-2.4l3.58,4.16c-.94,1.02-2.03,1.89-3.27,2.61-1.23.7-2.59,1.24-4.06,1.61-1.45.37-2.96.55-4.52.55ZM606.88,328.36c-2.81,0-5.12-.53-6.93-1.58-1.81-1.05-3.06-2.6-3.75-4.63-.67-2.05-.76-4.52-.25-7.41l.61-3.43c.53-3.01,1.48-5.58,2.85-7.71,1.39-2.13,3.14-3.75,5.25-4.86,2.11-1.12,4.52-1.67,7.21-1.67,2.54,0,4.59.63,6.17,1.9,1.57,1.27,2.62,3.11,3.13,5.51.53,2.41.5,5.29-.09,8.64l-.35,1.99h-20.51l.85-4.8h14.83c.26-2.48-.05-4.41-.92-5.77-.85-1.39-2.2-2.08-4.06-2.08-2.27,0-4.15.74-5.66,2.23-1.49,1.48-2.48,3.59-2.96,6.3l-.68,3.87c-.44,2.52-.12,4.45.97,5.8,1.09,1.35,2.86,2.02,5.3,2.02,1.21,0,2.46-.25,3.73-.73,1.28-.49,2.46-1.18,3.56-2.05l3.23,3.93c-1.76,1.44-3.64,2.57-5.66,3.37-2.01.78-3.97,1.17-5.86,1.17ZM571.08,285.32h30.06l-1,5.69h-30.06l1-5.69ZM582.5,288.81h5.98l-6.9,39.11h-5.98l6.9-39.11Z"/>
  <path class="cls-1" d="M348.84,159.26c10.09,1.3,87.66,7.67,137.87,46.27-14.54-1.42-25.53-1.2-36.4.38,69.05,45.86,5.45,112.54-94.69,128.55,26.52-18.6,38.09-46.35,41.5-62.67,17.91,15.43,30.32-2.54,31.14-21.28.86-19.85-10.89-41.34-31.07-24.93-4.55-31.32-24.18-54.79-48.35-66.32Z"/>
  <path class="cls-5" d="M239.14,336.77c-10.09-1.3-87.66-7.67-137.87-46.27,14.54,1.42,25.53,1.2,36.4-.38-69.06-45.86-5.45-112.54,94.69-128.55-26.52,18.6-38.09,46.35-41.5,62.67-17.91-15.43-30.32,2.53-31.14,21.28-.86,19.85,10.89,41.34,31.07,24.93,4.55,31.32,24.18,54.79,48.35,66.32Z"/>
  <line class="cls-4" x1="293.71" y1="150.77" x2="293.71" y2="94.65"/>
  <path d="M292.55,279.07c24.8,0,42.99,6.11,54.73,2.14,16.86-5.7,23.65-18.18,23.65-33.85,0-38.99-38.68-53.14-78.39-53.14s-76.7,16.79-76.44,53.14c.12,16.75,5.7,30.64,22.18,35.27,11.82,3.31,28.54-3.56,54.25-3.56Z"/>
  <path class="cls-2" d="M259.89,227.24c4.88,0,9.56,1.94,13.01,5.39,3.45,3.45,5.39,8.13,5.39,13.02,0,10.16-8.24,18.4-18.4,18.4s-18.41-8.24-18.41-18.4c0-4.88,1.94-9.56,5.39-13.02,3.45-3.45,8.13-5.39,13.02-5.39Z"/>
  <path class="cls-2" d="M327.16,227.24c4.88,0,9.56,1.94,13.01,5.39s5.39,8.13,5.39,13.02c0,10.16-8.24,18.4-18.4,18.4s-18.41-8.24-18.41-18.4c0-4.88,1.94-9.56,5.39-13.02,3.45-3.45,8.13-5.39,13.02-5.39Z"/>
  <circle cx="293.71" cy="83.54" r="18.43" transform="translate(-9.59 48.13) rotate(-9.22)"/>
</svg>